<svg width="46" height="62" viewBox="0 0 46 62" fill="none" xmlns="http://www.w3.org/2000/svg">
<path d="M42.1145 11.07C41.0888 9.34134 39.8188 7.76083 38.3046 6.37789C34.0063 2.42663 29.0241 0.500387 24.042 0.500387C18.8156 0.500387 13.5892 2.42663 8.99779 6.08155C6.99516 7.66205 5.38328 9.5389 4.11332 11.5639C0.840726 16.75 -0.136168 23.1214 0.88957 29.6903C1.91531 36.2099 4.94368 42.9765 9.73046 49.0515C13.1984 53.4967 17.6433 57.5468 22.9185 60.9547C23.407 61.2511 23.9931 61.2511 24.4327 60.9547C27.9984 58.7815 31.1733 56.065 33.9086 53.0028C39.4769 46.8289 43.2379 39.2722 44.7521 31.8635C46.2663 24.3561 45.5336 16.9475 42.0656 11.1194L42.1145 11.07ZM23.0162 34.9258C16.8129 34.9258 11.7819 29.8385 11.7819 23.5659C11.7819 17.2933 16.8129 12.206 23.0162 12.206C29.2195 12.206 34.2505 17.2933 34.2505 23.5659C34.2505 29.8385 29.2195 34.9258 23.0162 34.9258Z" fill="white" stroke="white" stroke-miterlimit="10"/>
</svg>
