<svg width="35" height="36" viewBox="0 0 35 36" fill="none" xmlns="http://www.w3.org/2000/svg">
<path d="M5.30898 8.54937C7.36339 9.97744 9.4178 11.4055 11.1444 13.251C10.1609 17.645 14.0948 21.1603 17.701 23.2255C19.0997 24.0384 19.7335 24.6096 21.3071 24.324L27.4922 30.4097C15.8651 34.3204 2.81747 17.8647 5.30898 8.54937ZM22.9026 22.7641L24.2576 21.38C24.651 20.9845 25.2848 20.9845 25.7001 21.38L30.705 26.3233C31.0983 26.7187 31.0983 27.3559 30.705 27.7733L29.3499 29.1574C28.9565 29.5529 28.3227 29.5529 27.9075 29.1574L22.9026 24.2141C22.5092 23.8187 22.5092 23.1815 22.9026 22.7641ZM6.53288 5.6493L7.51638 4.44094C7.93163 3.93563 8.69657 3.84775 9.2211 4.26518L14.3353 8.50543C14.8379 8.92287 14.9254 9.69182 14.5101 10.2191L13.5266 11.4275C13.1114 11.9328 12.3464 12.0207 11.8219 11.6032L6.70773 7.34101C6.20505 6.92358 6.11763 6.15462 6.53288 5.62733V5.6493Z" fill="white" stroke="white" stroke-miterlimit="10"/>
</svg>
