<svg width="89" height="68" viewBox="0 0 89 68" fill="none" xmlns="http://www.w3.org/2000/svg">
<path d="M44.0653 30.5306C46.1527 32.9768 48.555 35.3309 51.6712 37.477C54.8015 39.6333 58.6776 41.5983 63.7177 43.2641L63.7227 43.2658L63.7237 43.2641C64.091 43.3861 64.4407 43.3831 64.7692 43.3029C65.2455 43.1869 65.7415 42.9292 66.2239 42.6172C66.5917 42.3786 67.0529 41.9848 67.5514 41.5578C69.4919 39.8966 71.8911 37.8432 75.2783 38.8648C75.3499 38.8861 75.4175 38.9111 75.4811 38.9391L86.7698 43.1635C86.8101 43.1786 86.849 43.1948 86.8858 43.2118C88.3824 43.8811 88.9934 44.9119 88.9999 46.0659C89.007 47.2562 88.3294 48.5884 87.348 49.7149C86.0538 51.1996 84.1253 52.1808 81.9184 52.8457C79.8143 53.4795 77.4792 53.8167 75.2243 54.0317C71.6979 54.3686 68.3733 54.1546 64.9877 53.4755C61.6828 52.8125 58.3395 51.7055 54.6945 50.2345L54.4291 50.1274C52.7509 49.4503 50.9446 48.7218 49.1872 47.858C42.6959 44.6663 36.0856 40.0603 31.7993 35.0052C28.1912 30.7498 26.2168 26.1602 27.2931 21.7839C27.8829 19.3824 29.4728 17.2024 32.2136 15.7584C34.6163 14.492 37.8587 13.806 42.0264 14.0482C42.5173 14.0758 42.9311 14.2583 43.1642 14.5146L43.1672 14.5137L50.3946 22.4912C51.4592 23.3846 51.5773 24.2711 51.0016 25.1524C50.5258 25.8814 49.5424 26.5497 48.2386 27.1798C47.842 27.3935 47.3768 27.6153 46.897 27.8441C45.2834 28.6136 43.4377 29.4935 44.0653 30.5306ZM49.5389 38.7911C46.2067 36.4962 43.6682 34.0112 41.4784 31.4424C41.4401 31.402 41.4058 31.3592 41.3765 31.3142C39.775 28.8624 42.648 27.4931 45.1572 26.2976C45.5836 26.0944 45.9963 25.8975 46.3687 25.6964L46.3697 25.6974C46.3914 25.6855 46.4141 25.674 46.4378 25.6629C47.3677 25.2178 48.0378 24.7928 48.2936 24.4016C48.4394 24.1784 48.3854 23.9329 48.0585 23.6571C48.0025 23.6147 47.951 23.568 47.9056 23.5181L41.0243 15.9235C38.063 15.8442 35.7672 16.3577 34.0694 17.2527C31.9305 18.3798 30.6772 20.1318 30.1973 22.0843C29.2361 25.9939 31.0632 30.1684 34.3812 34.0819C38.4571 38.8884 44.7626 43.2779 50.9633 46.326C52.6682 47.1641 54.3822 47.8554 55.9746 48.4977L56.24 48.6048C59.6801 49.9929 62.8079 51.0326 65.853 51.6433C68.8178 52.238 71.7231 52.4256 74.7984 52.1318C76.8212 51.9388 78.892 51.6437 80.6857 51.1033C82.3765 50.5938 83.8382 49.8592 84.7898 48.7682C85.5447 47.9014 86.0664 46.9101 86.0619 46.0656C86.0588 45.5298 85.8237 45.07 85.252 44.8021L74.0254 40.6016C72.7837 40.2463 71.1852 41.6144 69.8915 42.7218C69.3345 43.199 68.8193 43.6395 68.2991 43.9764C67.5539 44.4583 66.7259 44.8715 65.7955 45.0976C64.7177 45.3602 63.5779 45.3717 62.3871 44.976L62.3881 44.9747C57.0327 43.2046 52.8957 41.1036 49.5389 38.7911Z" fill="black"/>
</svg>
