<svg width="71" height="51" viewBox="0 0 71 51" fill="none" xmlns="http://www.w3.org/2000/svg">
<path d="M4.07232 0H66.9276C68.0479 0 69.066 0.455727 69.8033 1.18753C70.5411 1.92048 70.9993 2.93353 70.9993 4.04529V46.9542C70.9993 47.7928 70.7387 48.5739 70.2938 49.2219C70.2124 49.4314 70.0852 49.6266 69.9113 49.7925C69.7952 49.9009 69.6675 49.9899 69.5323 50.0571C68.8245 50.6431 67.915 51.0001 66.9276 51.0001H4.07232C2.95313 51.0001 1.93389 50.5449 1.19547 49.812C0.458772 49.0796 0 48.0683 0 46.9542V4.04529C0 2.93123 0.457617 1.91933 1.19489 1.18753C1.93216 0.454579 2.95082 0 4.07232 0ZM3.12358 45.2524L25.1516 23.3155L3.12358 5.47446V45.2524ZM27.5778 25.2802L4.86738 47.8967H65.9413L44.238 25.2837L37.0831 31.3395C36.5221 31.8159 35.682 31.8429 35.088 31.3642L27.5778 25.2802ZM46.6133 23.2736L67.8757 45.4275V5.27931L46.6133 23.2736ZM5.12334 3.10285L36.0477 28.15L65.6443 3.10285H5.12334Z" fill="black"/>
</svg>
