<svg width="317" height="306" viewBox="0 0 317 306" fill="none" xmlns="http://www.w3.org/2000/svg">
<path d="M62.8428 138.481C62.5332 139.35 61.9141 139.971 61.295 140.591C57.642 144.314 53.9891 148.098 50.3362 151.821C50.0266 152.131 49.9028 152.379 50.0266 152.814C50.8934 157.715 51.6983 162.554 52.5032 167.456C52.627 168.325 52.8747 169.193 52.8127 170.062C52.7508 172.109 50.8315 173.288 48.9741 172.481C47.9215 172.047 46.869 171.427 45.8784 170.868C41.9159 168.759 37.8914 166.587 33.9289 164.416C33.5575 164.23 33.2479 164.168 32.8764 164.416C27.9852 167.084 23.0321 169.69 18.1409 172.357C16.6549 173.164 15.1071 172.73 14.2403 171.241C13.8688 170.558 13.8688 169.814 13.9926 169.131C14.8594 163.795 15.7262 158.46 16.6549 153.124C16.7788 152.441 16.593 152.069 16.1596 151.635C12.4448 147.912 8.79184 144.127 5.13891 140.405C4.51977 139.784 3.96254 139.164 3.83871 138.295C3.65297 136.558 4.76742 135.317 6.62485 135.069C10.5873 134.511 14.6118 133.952 18.5743 133.332C19.9364 133.146 21.2985 132.898 22.6606 132.773C23.0321 132.711 23.1559 132.587 23.3416 132.277C25.8182 127.438 28.2329 122.598 30.7094 117.759C31.0809 117.014 31.5762 116.332 32.443 116.022C33.6194 115.587 34.9815 115.96 35.6006 117.014C36.3436 118.193 36.9008 119.496 37.5819 120.737C39.5012 124.584 41.4825 128.43 43.4018 132.339C43.5256 132.649 43.7114 132.773 44.0829 132.836C48.3549 133.456 52.5651 134.076 56.8372 134.635C57.9516 134.821 59.0661 134.945 60.1186 135.131C61.5426 135.317 62.4094 136.062 62.8428 137.427C62.8428 137.737 62.8428 138.109 62.8428 138.481ZM33.3717 161.562C33.6194 161.686 33.867 161.748 34.0528 161.81C34.4862 161.996 34.8577 162.244 35.2911 162.43C40.0584 164.974 44.8877 167.58 49.6551 170.124C49.8409 170.248 50.1504 170.248 50.3362 170.186C50.3981 170.186 50.5219 169.814 50.46 169.627C49.4694 163.919 48.5407 158.211 47.55 152.503C47.4262 151.759 47.55 151.2 48.1073 150.642C50.2123 148.533 52.2555 146.423 54.2987 144.314C56.218 142.328 58.1993 140.343 60.1186 138.295C60.2424 138.109 60.4282 137.799 60.3663 137.675C60.3043 137.489 59.9948 137.427 59.7471 137.365C59.4375 137.303 59.0661 137.241 58.6946 137.241C53.4938 136.496 48.293 135.69 43.0922 135.007C42.2873 134.883 41.792 134.573 41.4825 133.828C39.0059 128.865 36.4674 123.839 33.9909 118.876C33.867 118.565 33.6194 118.317 33.3717 118.069C33.1241 118.317 32.8764 118.565 32.6907 118.876C30.1522 123.901 27.5518 128.927 25.0133 133.952C24.7657 134.449 24.4561 134.821 23.837 134.883C21.3604 135.255 18.8838 135.565 16.4073 135.938C13.3116 136.372 10.1539 136.806 7.05824 137.303C6.74867 137.365 6.37719 137.551 6.06762 137.613C6.25336 137.923 6.37719 138.295 6.62485 138.544C10.5873 142.638 14.5498 146.671 18.5123 150.704C18.9457 151.138 19.0696 151.573 19.0077 152.193C18.6362 154.179 18.3266 156.164 18.017 158.087C17.3979 161.748 16.8407 165.346 16.2215 169.007C16.1596 169.379 16.2215 169.752 16.2215 170.124C16.593 170 16.9645 170 17.2741 169.814C22.2891 167.146 27.2422 164.478 32.2573 161.81C32.7526 161.81 33.0622 161.686 33.3717 161.562Z" fill="#0F6A8C"/>
<path d="M125.252 138.419C124.943 139.288 124.324 139.909 123.704 140.529C120.051 144.252 116.399 148.036 112.746 151.759C112.436 152.069 112.312 152.317 112.436 152.752C113.303 157.653 114.108 162.492 114.913 167.394C115.036 168.263 115.284 169.131 115.222 170C115.16 172.047 113.241 173.226 111.383 172.419C110.331 171.985 109.278 171.365 108.288 170.806C104.325 168.697 100.301 166.525 96.3384 164.354C95.9669 164.168 95.6573 164.106 95.2858 164.354C90.3946 167.022 85.4415 169.628 80.5503 172.295C79.0644 173.102 77.5165 172.668 76.6497 171.179C76.2782 170.496 76.2782 169.752 76.402 169.069C77.2688 163.733 78.1356 158.398 79.0643 153.062C79.1882 152.379 79.0024 152.007 78.569 151.573C74.8542 147.85 71.2013 144.065 67.5483 140.343C66.9292 139.722 66.372 139.102 66.2481 138.233C66.0624 136.496 67.1768 135.255 69.0343 135.007C72.9968 134.449 77.0212 133.89 80.9837 133.27C82.3458 133.084 83.7079 132.836 85.07 132.711C85.4415 132.649 85.5653 132.525 85.7511 132.215C88.2276 127.376 90.6423 122.536 93.1188 117.697C93.4903 116.952 93.9856 116.27 94.8524 115.96C96.0288 115.525 97.3909 115.898 98.0101 116.952C98.753 118.131 99.3102 119.434 99.9913 120.675C101.911 124.522 103.892 128.368 105.811 132.277C105.935 132.587 106.121 132.711 106.492 132.774C110.764 133.394 114.975 134.014 119.247 134.573C120.361 134.759 121.475 134.883 122.528 135.069C123.952 135.255 124.819 136 125.252 137.365C125.252 137.675 125.252 138.047 125.252 138.419ZM95.7811 161.5C96.0288 161.624 96.2765 161.686 96.4622 161.748C96.8956 161.934 97.2671 162.182 97.7005 162.368C102.468 164.912 107.297 167.518 112.065 170.062C112.25 170.186 112.56 170.186 112.746 170.124C112.808 170.124 112.931 169.752 112.869 169.565C111.879 163.857 110.95 158.149 109.959 152.441C109.836 151.697 109.959 151.138 110.517 150.58C112.622 148.471 114.665 146.361 116.708 144.252C118.627 142.266 120.609 140.281 122.528 138.233C122.652 138.047 122.838 137.737 122.776 137.613C122.714 137.427 122.404 137.365 122.157 137.303C121.847 137.241 121.475 137.179 121.104 137.179C115.903 136.434 110.702 135.628 105.502 134.945C104.697 134.821 104.201 134.511 103.892 133.766C101.415 128.803 98.8768 123.777 96.4003 118.814C96.2765 118.503 96.0288 118.255 95.7811 118.007C95.5335 118.255 95.2858 118.503 95.1001 118.814C92.5616 123.839 89.9612 128.865 87.4227 133.89C87.1751 134.387 86.8655 134.759 86.2464 134.821C83.7698 135.193 81.2933 135.503 78.8167 135.876C75.721 136.31 72.5634 136.744 69.4677 137.241C69.1581 137.303 68.7866 137.489 68.477 137.551C68.6628 137.861 68.7866 138.233 69.0343 138.482C72.9968 142.576 76.9593 146.609 80.9218 150.642C81.3552 151.076 81.479 151.511 81.4171 152.131C81.0456 154.117 80.736 156.102 80.4265 158.025C79.8073 161.686 79.2501 165.284 78.6309 168.945C78.569 169.317 78.6309 169.69 78.6309 170.062C79.0024 169.938 79.3739 169.938 79.6835 169.752C84.6985 167.084 89.6516 164.416 94.6667 161.748C95.162 161.748 95.4716 161.686 95.7811 161.5Z" fill="#0F6A8C"/>
<path d="M187.6 138.419C187.29 139.288 186.671 139.909 186.052 140.529C182.399 144.252 178.746 148.036 175.093 151.759C174.783 152.069 174.66 152.317 174.783 152.752C175.65 157.653 176.455 162.492 177.26 167.394C177.384 168.263 177.631 169.131 177.57 170C177.508 172.047 175.588 173.226 173.731 172.419C172.678 171.985 171.626 171.365 170.635 170.806C166.673 168.697 162.648 166.525 158.686 164.354C158.314 164.168 158.005 164.106 157.633 164.354C152.742 167.022 147.789 169.628 142.898 172.295C141.412 173.102 139.864 172.668 138.997 171.179C138.626 170.496 138.626 169.752 138.749 169.069C139.616 163.733 140.483 158.398 141.412 153.062C141.536 152.379 141.35 152.007 140.916 151.573C137.202 147.85 133.549 144.065 129.896 140.343C129.277 139.722 128.719 139.102 128.596 138.233C128.41 136.496 129.524 135.255 131.382 135.007C135.344 134.449 139.369 133.89 143.331 133.27C144.693 133.084 146.055 132.836 147.417 132.711C147.789 132.649 147.913 132.525 148.098 132.215C150.575 127.376 152.99 122.536 155.466 117.697C155.838 116.952 156.333 116.27 157.2 115.96C158.376 115.525 159.738 115.898 160.357 116.952C161.1 118.131 161.658 119.434 162.339 120.675C164.258 124.522 166.239 128.368 168.159 132.277C168.282 132.587 168.468 132.711 168.84 132.774C173.112 133.394 177.322 134.014 181.594 134.573C182.708 134.759 183.823 134.883 184.875 135.069C186.299 135.255 187.166 136 187.6 137.365C187.6 137.613 187.6 138.047 187.6 138.419ZM158.129 161.5C158.376 161.624 158.624 161.686 158.81 161.748C159.243 161.934 159.614 162.182 160.048 162.368C164.815 164.912 169.645 167.518 174.412 170.062C174.598 170.186 174.907 170.186 175.093 170.124C175.155 170.124 175.279 169.752 175.217 169.565C174.226 163.857 173.297 158.149 172.307 152.441C172.183 151.697 172.307 151.138 172.864 150.58C174.969 148.471 177.012 146.361 179.056 144.252C180.975 142.266 182.956 140.281 184.875 138.233C184.999 138.047 185.185 137.737 185.123 137.613C185.061 137.427 184.752 137.365 184.504 137.303C184.194 137.241 183.823 137.179 183.451 137.179C178.251 136.434 173.05 135.628 167.849 134.945C167.044 134.821 166.549 134.511 166.239 133.766C163.763 128.803 161.224 123.777 158.748 118.814C158.624 118.503 158.376 118.255 158.129 118.007C157.881 118.255 157.633 118.503 157.448 118.814C154.909 123.839 152.309 128.865 149.77 133.89C149.522 134.387 149.213 134.759 148.594 134.821C146.117 135.193 143.641 135.503 141.164 135.876C138.068 136.31 134.911 136.744 131.815 137.241C131.506 137.303 131.134 137.489 130.824 137.551C131.01 137.861 131.134 138.233 131.382 138.482C135.344 142.576 139.307 146.609 143.269 150.642C143.703 151.076 143.826 151.511 143.764 152.131C143.393 154.117 143.083 156.102 142.774 158.025C142.155 161.686 141.598 165.284 140.978 168.945C140.916 169.317 140.978 169.69 140.978 170.062C141.35 169.938 141.721 169.938 142.031 169.752C147.046 167.084 151.999 164.416 157.014 161.748C157.509 161.748 157.819 161.624 158.129 161.5Z" fill="#0F6A8C"/>
<path d="M250.009 138.357C249.699 139.226 249.08 139.847 248.461 140.467C244.808 144.19 241.155 147.974 237.502 151.697C237.193 152.007 237.069 152.255 237.193 152.69C238.06 157.591 238.865 162.43 239.669 167.332C239.793 168.201 240.041 169.069 239.979 169.938C239.917 171.985 237.998 173.164 236.14 172.357C235.088 171.923 234.035 171.303 233.045 170.744C229.082 168.635 225.058 166.463 221.095 164.292C220.724 164.106 220.414 164.044 220.043 164.292C215.151 166.96 210.198 169.566 205.307 172.233C203.821 173.04 202.273 172.606 201.407 171.117C201.035 170.434 201.035 169.69 201.159 169.007C202.026 163.671 202.892 158.336 203.821 153C203.945 152.317 203.759 151.945 203.326 151.511C199.611 147.788 195.958 144.003 192.305 140.281C191.686 139.66 191.129 139.04 191.005 138.171C190.819 136.434 191.934 135.193 193.791 134.945C197.754 134.387 201.778 133.828 205.741 133.208C207.103 133.022 208.465 132.774 209.827 132.649C210.198 132.587 210.322 132.463 210.508 132.153C212.984 127.314 215.399 122.474 217.876 117.635C218.247 116.89 218.742 116.208 219.609 115.898C220.786 115.463 222.148 115.836 222.767 116.89C223.51 118.069 224.067 119.372 224.748 120.613C226.667 124.46 228.649 128.306 230.568 132.215C230.692 132.525 230.878 132.649 231.249 132.711C235.521 133.332 239.731 133.952 244.003 134.511C245.118 134.697 246.232 134.821 247.285 135.007C248.709 135.193 249.576 135.938 250.009 137.303C250.009 137.613 250.009 137.985 250.009 138.357ZM220.538 161.438C220.786 161.562 221.033 161.624 221.219 161.686C221.652 161.872 222.024 162.12 222.457 162.306C227.225 164.85 232.054 167.456 236.821 170C237.007 170.124 237.317 170.124 237.502 170.062C237.564 170.062 237.688 169.69 237.626 169.503C236.636 163.795 235.707 158.087 234.716 152.379C234.592 151.635 234.716 151.076 235.274 150.518C237.379 148.409 239.422 146.299 241.465 144.19C243.384 142.204 245.366 140.219 247.285 138.171C247.409 137.985 247.594 137.675 247.533 137.551C247.471 137.365 247.161 137.303 246.913 137.241C246.604 137.179 246.232 137.117 245.861 137.117C240.66 136.372 235.459 135.565 230.258 134.883C229.454 134.759 228.958 134.449 228.649 133.704C226.172 128.741 223.634 123.715 221.157 118.752C221.033 118.441 220.786 118.193 220.538 117.945C220.29 118.193 220.043 118.441 219.857 118.752C217.318 123.777 214.718 128.803 212.18 133.828C211.932 134.325 211.622 134.697 211.003 134.759C208.527 135.131 206.05 135.441 203.574 135.814C200.478 136.248 197.32 136.682 194.225 137.179C193.915 137.241 193.543 137.427 193.234 137.489C193.42 137.799 193.543 138.171 193.791 138.42C197.754 142.514 201.716 146.547 205.679 150.58C206.112 151.014 206.236 151.449 206.174 152.069C205.802 154.055 205.493 156.04 205.183 157.963C204.564 161.624 204.007 165.222 203.388 168.883C203.326 169.255 203.388 169.628 203.388 170C203.759 169.876 204.131 169.876 204.44 169.69C209.455 167.022 214.408 164.354 219.424 161.686C219.919 161.686 220.228 161.562 220.538 161.438Z" fill="#0F6A8C"/>
<path d="M312.418 138.295C312.109 139.164 311.49 139.785 310.871 140.405C307.218 144.128 303.565 147.912 299.912 151.635C299.602 151.945 299.478 152.193 299.602 152.628C300.469 157.529 301.274 162.368 302.079 167.27C302.203 168.139 302.45 169.007 302.388 169.876C302.326 171.923 300.407 173.102 298.55 172.295C297.497 171.861 296.445 171.241 295.454 170.682C291.491 168.573 287.467 166.401 283.505 164.23C283.133 164.044 282.823 163.982 282.452 164.23C277.561 166.898 272.608 169.503 267.716 172.171C266.23 172.978 264.683 172.544 263.816 171.055C263.444 170.372 263.444 169.628 263.568 168.945C264.435 163.609 265.302 158.274 266.23 152.938C266.354 152.255 266.169 151.883 265.735 151.449C262.02 147.726 258.367 143.941 254.714 140.219C254.095 139.598 253.538 138.978 253.414 138.109C253.229 136.372 254.343 135.131 256.2 134.883C260.163 134.325 264.187 133.766 268.15 133.146C269.512 132.96 270.874 132.712 272.236 132.587C272.608 132.525 272.731 132.401 272.917 132.091C275.394 127.252 277.808 122.412 280.285 117.573C280.656 116.828 281.152 116.146 282.019 115.836C283.195 115.401 284.557 115.774 285.176 116.828C285.919 118.007 286.476 119.31 287.157 120.551C289.077 124.398 291.058 128.244 292.977 132.153C293.101 132.463 293.287 132.587 293.658 132.649C297.93 133.27 302.141 133.89 306.413 134.449C307.527 134.635 308.642 134.759 309.694 134.945C311.118 135.131 311.985 135.876 312.418 137.241C312.418 137.551 312.418 137.923 312.418 138.295ZM282.947 161.376C283.195 161.5 283.443 161.562 283.628 161.624C284.062 161.81 284.433 162.058 284.867 162.244C289.634 164.788 294.463 167.394 299.231 169.938C299.416 170.062 299.726 170.062 299.912 170C299.974 170 300.097 169.628 300.036 169.441C299.045 163.733 298.116 158.025 297.126 152.317C297.002 151.573 297.126 151.014 297.683 150.456C299.788 148.347 301.831 146.237 303.874 144.128C305.794 142.142 307.775 140.157 309.694 138.109C309.818 137.923 310.004 137.613 309.942 137.489C309.88 137.303 309.57 137.241 309.323 137.179C309.013 137.117 308.642 137.055 308.27 137.055C303.069 136.31 297.869 135.503 292.668 134.821C291.863 134.697 291.368 134.387 291.058 133.642C288.581 128.679 286.043 123.653 283.566 118.69C283.443 118.379 283.195 118.131 282.947 117.883C282.7 118.131 282.452 118.379 282.266 118.69C279.728 123.715 277.127 128.741 274.589 133.766C274.341 134.263 274.032 134.635 273.413 134.697C270.936 135.069 268.459 135.379 265.983 135.752C262.887 136.186 259.73 136.62 256.634 137.117C256.324 137.179 255.953 137.365 255.643 137.427C255.829 137.737 255.953 138.109 256.2 138.358C260.163 142.452 264.125 146.485 268.088 150.518C268.521 150.952 268.645 151.387 268.583 152.007C268.212 153.993 267.902 155.978 267.593 157.901C266.973 161.562 266.416 165.16 265.797 168.821C265.735 169.193 265.797 169.566 265.797 169.938C266.169 169.814 266.54 169.814 266.85 169.628C271.865 166.96 276.818 164.292 281.833 161.624C282.328 161.624 282.638 161.5 282.947 161.376Z" fill="#0F6A8C"/>
</svg>
